<svg width="191" height="39" viewBox="0 0 191 39" fill="none" xmlns="http://www.w3.org/2000/svg">
<path d="M0.632 4.016C1.464 4.048 2.552 4.08 3.896 4.112C5.24 4.144 6.584 4.16 7.928 4.16C9.464 4.16 10.952 4.144 12.392 4.112C13.832 4.08 14.856 4.064 15.464 4.064C19.432 4.064 22.392 4.768 24.344 6.176C26.328 7.584 27.32 9.392 27.32 11.6C27.32 12.72 26.984 13.856 26.312 15.008C25.64 16.16 24.6 17.184 23.192 18.08C21.784 18.976 19.96 19.632 17.72 20.048V20.144C20.728 20.368 23.112 20.912 24.872 21.776C26.632 22.64 27.896 23.68 28.664 24.896C29.432 26.112 29.816 27.376 29.816 28.688C29.816 30.704 29.288 32.4 28.232 33.776C27.176 35.152 25.656 36.208 23.672 36.944C21.688 37.648 19.32 38 16.568 38C15.8 38 14.696 37.984 13.256 37.952C11.816 37.888 10.072 37.856 8.024 37.856C6.616 37.856 5.24 37.872 3.896 37.904C2.552 37.904 1.464 37.936 0.632 38V37.04C1.656 36.976 2.424 36.848 2.936 36.656C3.448 36.464 3.784 36.08 3.944 35.504C4.136 34.928 4.232 34.064 4.232 32.912V9.104C4.232 7.92 4.136 7.056 3.944 6.512C3.784 5.936 3.432 5.552 2.888 5.36C2.376 5.136 1.624 5.008 0.632 4.976V4.016ZM14.84 4.976C13.592 4.976 12.776 5.248 12.392 5.792C12.04 6.336 11.864 7.44 11.864 9.104V32.912C11.864 34.032 11.944 34.88 12.104 35.456C12.296 36.032 12.616 36.416 13.064 36.608C13.544 36.8 14.248 36.896 15.176 36.896C17.48 36.896 19.16 36.176 20.216 34.736C21.304 33.264 21.848 31.184 21.848 28.496C21.848 26.032 21.224 24.128 19.976 22.784C18.76 21.44 16.728 20.768 13.88 20.768H9.8C9.8 20.768 9.8 20.64 9.8 20.384C9.8 20.096 9.8 19.952 9.8 19.952H13.928C15.432 19.952 16.584 19.6 17.384 18.896C18.184 18.16 18.744 17.2 19.064 16.016C19.384 14.8 19.544 13.504 19.544 12.128C19.544 9.76 19.176 7.984 18.44 6.8C17.704 5.584 16.504 4.976 14.84 4.976ZM39.026 38.336C37.586 38.336 36.386 38.064 35.426 37.52C34.466 36.976 33.762 36.256 33.314 35.36C32.866 34.432 32.642 33.424 32.642 32.336C32.642 30.96 32.946 29.84 33.554 28.976C34.194 28.112 35.01 27.408 36.002 26.864C36.994 26.32 38.034 25.872 39.122 25.52C40.242 25.168 41.298 24.832 42.29 24.512C43.314 24.16 44.13 23.76 44.738 23.312C45.378 22.832 45.698 22.224 45.698 21.488V17.744C45.698 16.912 45.554 16.176 45.266 15.536C45.01 14.864 44.594 14.352 44.018 14C43.474 13.648 42.754 13.472 41.858 13.472C41.218 13.472 40.578 13.568 39.938 13.76C39.298 13.92 38.77 14.208 38.354 14.624C39.25 14.944 39.938 15.44 40.418 16.112C40.93 16.752 41.186 17.488 41.186 18.32C41.186 19.408 40.802 20.272 40.034 20.912C39.298 21.552 38.418 21.872 37.394 21.872C36.242 21.872 35.362 21.52 34.754 20.816C34.178 20.08 33.89 19.2 33.89 18.176C33.89 17.248 34.114 16.48 34.562 15.872C35.042 15.264 35.698 14.688 36.53 14.144C37.426 13.632 38.498 13.232 39.746 12.944C41.026 12.656 42.402 12.512 43.874 12.512C45.346 12.512 46.674 12.672 47.858 12.992C49.042 13.28 50.034 13.824 50.834 14.624C51.57 15.36 52.05 16.272 52.274 17.36C52.498 18.416 52.61 19.76 52.61 21.392V34.448C52.61 35.248 52.69 35.808 52.85 36.128C53.01 36.416 53.282 36.56 53.666 36.56C53.954 36.56 54.226 36.48 54.482 36.32C54.77 36.16 55.074 35.968 55.394 35.744L55.874 36.56C55.202 37.136 54.418 37.584 53.522 37.904C52.658 38.192 51.682 38.336 50.594 38.336C49.41 38.336 48.466 38.176 47.762 37.856C47.058 37.504 46.546 37.04 46.226 36.464C45.938 35.888 45.794 35.216 45.794 34.448C45.026 35.664 44.098 36.624 43.01 37.328C41.922 38 40.594 38.336 39.026 38.336ZM42.434 35.264C43.074 35.264 43.65 35.12 44.162 34.832C44.706 34.512 45.218 34 45.698 33.296V23.456C45.41 23.936 45.01 24.368 44.498 24.752C43.986 25.136 43.442 25.536 42.866 25.952C42.29 26.336 41.73 26.768 41.186 27.248C40.674 27.728 40.258 28.32 39.938 29.024C39.618 29.728 39.458 30.576 39.458 31.568C39.458 32.816 39.73 33.744 40.274 34.352C40.818 34.96 41.538 35.264 42.434 35.264ZM73.7578 12.512C74.7818 12.512 75.6138 12.736 76.2538 13.184C76.8938 13.6 77.3578 14.144 77.6458 14.816C77.9658 15.488 78.1258 16.192 78.1258 16.928C78.1258 18.112 77.7738 19.088 77.0698 19.856C76.3978 20.592 75.5018 20.96 74.3818 20.96C73.2618 20.96 72.3818 20.688 71.7418 20.144C71.1338 19.568 70.8298 18.816 70.8298 17.888C70.8298 16.992 71.0218 16.256 71.4058 15.68C71.8218 15.072 72.3338 14.56 72.9418 14.144C72.4938 14.016 72.0458 14.032 71.5978 14.192C70.9898 14.288 70.4138 14.544 69.8698 14.96C69.3258 15.344 68.8618 15.84 68.4778 16.448C68.0938 17.024 67.7898 17.664 67.5658 18.368C67.3418 19.04 67.2298 19.696 67.2298 20.336V33.056C67.2298 34.592 67.5978 35.632 68.3338 36.176C69.1018 36.72 70.2378 36.992 71.7418 36.992V38C71.0058 37.968 69.9338 37.936 68.5258 37.904C67.1178 37.84 65.6458 37.808 64.1098 37.808C62.8298 37.808 61.5338 37.84 60.2218 37.904C58.9098 37.936 57.9178 37.968 57.2458 38V36.992C58.3658 36.992 59.1498 36.752 59.5978 36.272C60.0778 35.792 60.3178 34.88 60.3178 33.536V18.416C60.3178 16.976 60.0938 15.92 59.6458 15.248C59.2298 14.544 58.4298 14.192 57.2458 14.192V13.184C58.2698 13.28 59.2618 13.328 60.2218 13.328C61.5658 13.328 62.8138 13.28 63.9658 13.184C65.1498 13.056 66.2378 12.88 67.2298 12.656V17.12C67.6138 16.256 68.1258 15.472 68.7657 14.768C69.4058 14.064 70.1418 13.52 70.9738 13.136C71.8058 12.72 72.7338 12.512 73.7578 12.512ZM95.1785 12.512C97.6745 12.512 99.7385 13.536 101.371 15.584C103.035 17.6 103.867 20.72 103.867 24.944C103.867 28.272 103.355 30.944 102.331 32.96C101.339 34.976 100.011 36.432 98.3465 37.328C96.6825 38.224 94.8585 38.672 92.8745 38.672C91.5625 38.672 90.3465 38.448 89.2265 38C88.1065 37.552 87.1465 36.816 86.3465 35.792L87.0185 35.552C87.5945 36.256 88.2665 36.784 89.0345 37.136C89.8345 37.488 90.6185 37.664 91.3865 37.664C93.1465 37.664 94.4585 36.672 95.3225 34.688C96.1865 32.704 96.6185 29.68 96.6185 25.616C96.6185 22.864 96.4425 20.688 96.0905 19.088C95.7705 17.456 95.2905 16.304 94.6505 15.632C94.0105 14.928 93.2425 14.576 92.3465 14.576C91.2265 14.576 90.2025 15.04 89.2745 15.968C88.3465 16.864 87.8185 18.128 87.6905 19.76L87.4505 18.08C88.0265 16.256 89.0025 14.88 90.3785 13.952C91.7545 12.992 93.3545 12.512 95.1785 12.512ZM87.8345 0.463997V37.04C87.0345 36.912 86.2185 36.912 85.3865 37.04C84.5545 37.168 83.7865 37.392 83.0825 37.712C82.3785 38 81.7865 38.352 81.3065 38.768L80.5865 38.336C80.7145 37.888 80.7945 37.44 80.8265 36.992C80.8905 36.544 80.9225 36.096 80.9225 35.648V6.224C80.9225 4.784 80.6985 3.728 80.2505 3.056C79.8345 2.352 79.0345 2 77.8505 2V0.991999C78.8745 1.088 79.8665 1.136 80.8265 1.136C82.1385 1.136 83.3865 1.088 84.5705 0.991999C85.7545 0.863998 86.8425 0.687998 87.8345 0.463997ZM119.224 12.512C121.56 12.512 123.608 12.944 125.368 13.808C127.128 14.672 128.504 16.064 129.496 17.984C130.488 19.904 130.984 22.448 130.984 25.616C130.984 28.784 130.488 31.328 129.496 33.248C128.504 35.136 127.128 36.512 125.368 37.376C123.608 38.24 121.56 38.672 119.224 38.672C116.952 38.672 114.92 38.24 113.128 37.376C111.368 36.512 109.976 35.136 108.952 33.248C107.96 31.328 107.464 28.784 107.464 25.616C107.464 22.448 107.96 19.904 108.952 17.984C109.976 16.064 111.368 14.672 113.128 13.808C114.92 12.944 116.952 12.512 119.224 12.512ZM119.224 13.472C117.944 13.472 116.872 14.432 116.008 16.352C115.144 18.24 114.712 21.328 114.712 25.616C114.712 29.904 115.144 32.992 116.008 34.88C116.872 36.768 117.944 37.712 119.224 37.712C120.536 37.712 121.608 36.768 122.44 34.88C123.304 32.992 123.736 29.904 123.736 25.616C123.736 21.328 123.304 18.24 122.44 16.352C121.608 14.432 120.536 13.472 119.224 13.472ZM143.484 12.512C144.828 12.512 145.996 12.688 146.988 13.04C148.012 13.36 148.748 13.68 149.196 14C150.284 14.736 150.956 14.256 151.212 12.56H152.22C152.156 13.456 152.108 14.56 152.076 15.872C152.044 17.152 152.028 18.864 152.028 21.008H151.02C150.86 19.824 150.556 18.656 150.108 17.504C149.66 16.352 149.004 15.408 148.14 14.672C147.308 13.936 146.22 13.568 144.876 13.568C143.948 13.568 143.164 13.84 142.524 14.384C141.884 14.896 141.564 15.648 141.564 16.64C141.564 17.6 141.852 18.448 142.428 19.184C143.004 19.888 143.74 20.576 144.636 21.248C145.564 21.888 146.524 22.576 147.516 23.312C148.572 24.112 149.532 24.912 150.396 25.712C151.26 26.48 151.948 27.328 152.46 28.256C152.972 29.184 153.228 30.288 153.228 31.568C153.228 33.008 152.812 34.272 151.98 35.36C151.148 36.416 150.044 37.232 148.668 37.808C147.324 38.384 145.82 38.672 144.156 38.672C143.196 38.672 142.332 38.576 141.564 38.384C140.828 38.192 140.188 37.952 139.644 37.664C139.228 37.472 138.828 37.296 138.444 37.136C138.092 36.944 137.756 36.784 137.436 36.656C137.116 36.56 136.828 36.672 136.572 36.992C136.348 37.312 136.172 37.76 136.044 38.336H135.036C135.1 37.312 135.148 36.064 135.18 34.592C135.212 33.12 135.228 31.168 135.228 28.736H136.236C136.428 30.464 136.78 32 137.292 33.344C137.804 34.656 138.492 35.696 139.356 36.464C140.252 37.2 141.372 37.568 142.716 37.568C143.26 37.568 143.788 37.456 144.3 37.232C144.812 37.008 145.228 36.64 145.548 36.128C145.9 35.616 146.076 34.96 146.076 34.16C146.076 32.752 145.612 31.584 144.684 30.656C143.788 29.728 142.636 28.72 141.228 27.632C140.204 26.8 139.228 25.984 138.3 25.184C137.404 24.352 136.668 23.456 136.092 22.496C135.516 21.504 135.228 20.384 135.228 19.136C135.228 17.696 135.612 16.48 136.38 15.488C137.148 14.496 138.156 13.76 139.404 13.28C140.684 12.768 142.044 12.512 143.484 12.512ZM162.776 38.336C161.336 38.336 160.136 38.064 159.176 37.52C158.216 36.976 157.512 36.256 157.064 35.36C156.616 34.432 156.392 33.424 156.392 32.336C156.392 30.96 156.696 29.84 157.304 28.976C157.944 28.112 158.76 27.408 159.752 26.864C160.744 26.32 161.784 25.872 162.872 25.52C163.992 25.168 165.048 24.832 166.04 24.512C167.064 24.16 167.88 23.76 168.488 23.312C169.128 22.832 169.448 22.224 169.448 21.488V17.744C169.448 16.912 169.304 16.176 169.016 15.536C168.76 14.864 168.344 14.352 167.768 14C167.224 13.648 166.504 13.472 165.608 13.472C164.968 13.472 164.328 13.568 163.688 13.76C163.048 13.92 162.52 14.208 162.104 14.624C163 14.944 163.688 15.44 164.168 16.112C164.68 16.752 164.936 17.488 164.936 18.32C164.936 19.408 164.552 20.272 163.784 20.912C163.048 21.552 162.168 21.872 161.144 21.872C159.992 21.872 159.112 21.52 158.504 20.816C157.928 20.08 157.64 19.2 157.64 18.176C157.64 17.248 157.864 16.48 158.312 15.872C158.792 15.264 159.448 14.688 160.28 14.144C161.176 13.632 162.248 13.232 163.496 12.944C164.776 12.656 166.152 12.512 167.624 12.512C169.096 12.512 170.424 12.672 171.608 12.992C172.792 13.28 173.784 13.824 174.584 14.624C175.32 15.36 175.8 16.272 176.024 17.36C176.248 18.416 176.36 19.76 176.36 21.392V34.448C176.36 35.248 176.44 35.808 176.6 36.128C176.76 36.416 177.032 36.56 177.416 36.56C177.704 36.56 177.976 36.48 178.232 36.32C178.52 36.16 178.824 35.968 179.144 35.744L179.624 36.56C178.952 37.136 178.168 37.584 177.272 37.904C176.408 38.192 175.432 38.336 174.344 38.336C173.16 38.336 172.216 38.176 171.512 37.856C170.808 37.504 170.296 37.04 169.976 36.464C169.688 35.888 169.544 35.216 169.544 34.448C168.776 35.664 167.848 36.624 166.76 37.328C165.672 38 164.344 38.336 162.776 38.336ZM166.184 35.264C166.824 35.264 167.4 35.12 167.912 34.832C168.456 34.512 168.968 34 169.448 33.296V23.456C169.16 23.936 168.76 24.368 168.248 24.752C167.736 25.136 167.192 25.536 166.616 25.952C166.04 26.336 165.48 26.768 164.936 27.248C164.424 27.728 164.008 28.32 163.688 29.024C163.368 29.728 163.208 30.576 163.208 31.568C163.208 32.816 163.48 33.744 164.024 34.352C164.568 34.96 165.288 35.264 166.184 35.264ZM186.324 31.28C187.572 31.28 188.564 31.616 189.3 32.288C190.036 32.928 190.404 33.824 190.404 34.976C190.404 36.128 190.036 37.04 189.3 37.712C188.564 38.352 187.572 38.672 186.324 38.672C185.076 38.672 184.084 38.352 183.348 37.712C182.612 37.04 182.244 36.128 182.244 34.976C182.244 33.824 182.612 32.928 183.348 32.288C184.084 31.616 185.076 31.28 186.324 31.28Z" fill="#141414"/>
</svg>
